<?xml version="1.0" encoding="utf-8"?>
<!DOCTYPE svg PUBLIC "-//W3C//DTD SVG 20010904//EN" "http://www.w3.org/TR/2001/REC-SVG-20010904/DTD/svg10.dtd">
<svg version="1.0" xmlns="http://www.w3.org/2000/svg" width="200pt" height="37pt" viewBox="0 0 277 37" style="" preserveAspectRatio="xMidYMid meet">
<g fill="#eee" stroke="#eee">
<path d="M 196.446 5.709 C 195.338 10.753 195.106 11.000 191.482 11.000 C 184.626 11.000 178.956 15.737 176.966 23.126 C 175.714 27.776 177.033 31.000 180.187 31.000 C 181.417 31.000 184.584 28.720 187.746 25.558 C 192.328 20.976 193.086 20.521 192.545 22.675 C 190.585 30.485 190.621 31.001 193.125 30.985 C 194.820 30.974 195.115 30.726 194.157 30.118 C 193.058 29.422 193.266 27.559 195.300 19.883 C 198.581 7.499 199.125 4.195 197.997 3.498 C 197.481 3.179 196.783 4.174 196.446 5.709 M 192.049 18.125 C 188.918 22.840 180.330 30.322 178.997 29.498 C 177.768 28.739 179.642 20.957 181.732 18.142 C 184.362 14.599 187.804 12.924 191.810 13.240 L 195.121 13.500 192.049 18.125 "/></g>
<g fill="#eee" stroke="#eee">
<path d="M 78.541 7.760 C 78.165 10.367 76.990 15.950 75.929 20.167 C 73.227 30.905 73.246 31.000 78.099 31.000 C 83.182 31.000 88.448 28.585 90.906 25.127 C 93.614 21.316 95.137 15.125 93.924 12.857 C 92.148 9.539 88.871 10.719 82.947 16.811 L 77.297 22.621 79.131 15.561 C 81.169 7.718 81.441 4.391 80.112 3.569 C 79.624 3.267 78.917 5.153 78.541 7.760 M 93.000 13.318 C 93.000 13.494 92.318 15.935 91.484 18.743 C 90.528 21.962 88.853 24.787 86.954 26.385 C 83.975 28.892 77.505 30.838 76.267 29.600 C 75.248 28.581 83.364 17.725 86.995 15.250 C 89.837 13.313 93.000 12.295 93.000 13.318 "/></g>
<g fill="#eee" stroke="#eee">
<path d="M 102.299 12.960 C 96.365 16.577 93.453 26.664 97.490 29.616 C 99.698 31.231 104.601 31.455 105.510 29.984 C 105.856 29.425 106.492 29.186 106.924 29.453 C 108.028 30.135 111.660 26.045 112.933 22.685 C 114.537 18.452 114.226 15.226 112.000 13.000 C 109.478 10.478 106.389 10.465 102.299 12.960 M 111.410 17.797 C 111.309 22.651 108.766 26.791 104.644 28.812 C 100.746 30.724 98.000 29.520 98.000 25.900 C 98.000 18.696 102.970 12.691 108.500 13.216 C 111.340 13.485 111.495 13.729 111.410 17.797 "/></g>
<g fill="#eee" stroke="#eee">
<path d="M 161.256 12.645 C 153.459 16.489 150.242 31.000 157.187 31.000 C 158.256 31.000 161.373 28.697 164.115 25.882 L 169.100 20.764 168.421 25.882 C 167.769 30.798 167.836 30.999 170.121 30.985 C 171.893 30.973 172.143 30.743 171.100 30.083 C 169.915 29.333 170.006 27.879 171.695 20.609 C 172.791 15.886 173.459 11.792 173.178 11.511 C 172.066 10.399 164.317 11.136 161.256 12.645 M 170.684 14.250 C 168.755 18.803 167.015 21.047 162.141 25.268 C 156.151 30.456 154.473 30.325 155.519 24.748 C 156.398 20.063 159.492 15.140 162.256 14.029 C 165.757 12.621 171.313 12.767 170.684 14.250 M 170.200 20.200 C 169.267 21.133 169.000 21.133 169.000 20.200 C 169.000 19.540 169.540 19.000 170.200 19.000 C 171.133 19.000 171.133 19.267 170.200 20.200 "/></g>
<g fill="#eee" stroke="#eee">
<path d="M 203.928 11.191 C 200.144 27.391 199.506 30.996 200.429 30.970 C 201.018 30.954 203.059 28.219 204.964 24.894 C 206.869 21.568 210.244 17.214 212.464 15.218 C 216.340 11.733 216.487 11.687 216.177 14.045 C 215.999 15.395 215.032 19.763 214.029 23.750 C 211.874 32.313 213.181 33.493 216.950 26.387 C 218.296 23.850 221.435 19.688 223.924 17.137 C 229.183 11.751 230.056 12.706 227.560 21.111 C 225.324 28.640 225.489 31.003 228.250 30.985 C 229.943 30.973 230.154 30.750 229.103 30.085 C 227.916 29.333 227.953 28.219 229.353 22.645 C 231.281 14.970 231.409 12.371 229.905 11.441 C 227.987 10.256 223.912 13.281 219.751 18.976 C 217.531 22.014 216.026 23.620 216.405 22.545 C 217.896 18.318 218.235 12.263 217.022 11.514 C 214.993 10.259 211.000 13.160 206.751 18.976 C 204.531 22.014 203.036 23.600 203.429 22.500 C 204.876 18.442 205.724 11.947 204.874 11.422 C 204.393 11.125 203.968 11.021 203.928 11.191 "/></g>
<g fill="#eee" stroke="#eee">
<path d="M 22.542 3.932 C 22.225 4.445 23.201 5.007 24.710 5.182 C 28.794 5.655 29.968 9.027 29.985 20.333 C 30.003 31.946 30.789 32.321 35.997 23.202 C 37.924 19.829 41.075 14.916 43.000 12.284 L 46.500 7.500 45.163 12.917 C 43.247 20.681 42.151 28.229 42.722 29.718 C 43.291 31.200 48.000 31.480 48.000 30.031 C 48.000 29.499 47.256 29.348 46.346 29.697 C 44.885 30.258 44.759 29.641 45.266 24.416 C 45.582 21.162 46.928 15.219 48.258 11.209 C 49.823 6.491 50.313 3.693 49.646 3.281 C 48.224 2.402 40.231 11.551 35.999 18.902 C 34.074 22.244 32.275 24.984 32.000 24.991 C 31.725 24.998 31.652 22.043 31.839 18.424 C 32.243 10.569 31.614 7.614 28.975 4.975 C 26.899 2.899 23.519 2.351 22.542 3.932 "/></g>
<g fill="#eee" stroke="#eee">
<path d="M 246.821 12.000 C 245.421 15.090 242.304 31.000 243.098 31.000 C 243.553 31.000 245.705 28.379 247.881 25.176 C 251.914 19.236 258.559 12.653 259.970 13.198 C 260.400 13.364 259.682 17.075 258.376 21.444 C 255.476 31.140 255.478 31.004 258.250 30.985 C 259.563 30.976 260.033 30.664 259.378 30.235 C 258.578 29.711 258.924 27.262 260.582 21.711 C 262.835 14.167 262.888 11.000 260.761 11.000 C 258.518 11.000 253.281 15.119 249.982 19.477 C 246.803 23.677 246.538 23.835 246.936 21.289 C 247.640 16.790 247.560 10.368 246.821 12.000 "/></g>
<g fill="#eee" stroke="#eee">
<path d="M 55.650 11.817 C 55.182 12.541 55.066 13.399 55.391 13.725 C 55.716 14.050 55.582 14.807 55.093 15.408 C 53.965 16.793 51.000 26.771 51.000 29.182 C 51.000 33.530 58.233 30.006 63.890 22.900 C 68.163 17.534 68.578 17.315 67.140 21.185 C 66.667 22.458 65.972 25.188 65.595 27.250 C 64.933 30.870 65.007 30.996 67.705 30.884 C 69.242 30.820 69.765 30.572 68.868 30.333 C 67.485 29.965 67.382 29.256 68.196 25.699 C 68.724 23.390 69.287 20.600 69.446 19.500 C 69.605 18.400 70.058 16.739 70.452 15.808 C 70.847 14.878 70.985 13.303 70.760 12.308 C 70.432 10.859 69.968 11.165 68.425 13.846 C 65.204 19.443 61.176 24.160 56.986 27.242 C 52.319 30.674 52.084 29.969 55.037 21.407 C 57.034 15.618 57.456 9.020 55.650 11.817 "/></g>
<g fill="#eee" stroke="#eee">
<path d="M 119.000 12.158 C 119.000 12.859 119.745 15.385 120.656 17.770 L 122.312 22.106 117.948 26.553 C 115.265 29.287 114.169 31.000 115.105 31.000 C 115.941 31.000 117.919 29.650 119.500 28.000 C 121.081 26.350 122.627 25.003 122.937 25.006 C 123.247 25.010 124.267 26.360 125.203 28.006 C 126.370 30.057 127.630 30.963 129.203 30.884 C 130.558 30.816 130.862 30.596 129.944 30.348 C 128.433 29.940 125.000 25.066 125.000 23.327 C 125.000 22.852 126.800 20.285 129.000 17.623 C 131.200 14.960 133.000 12.271 133.000 11.647 C 133.000 11.022 131.200 12.422 129.000 14.757 C 126.800 17.093 125.000 19.543 125.000 20.202 C 125.000 22.264 123.316 19.732 122.048 15.764 C 120.841 11.987 119.000 9.809 119.000 12.158 "/></g>
<g fill="#eee" stroke="#eee">
<path d="M 25.605 8.250 C 22.703 19.153 20.494 24.394 17.434 27.638 C 13.255 32.070 13.536 33.103 17.918 29.415 C 21.551 26.358 24.281 21.461 25.955 14.994 C 26.595 12.522 27.348 9.713 27.627 8.750 C 27.906 7.788 27.640 7.000 27.036 7.000 C 26.432 7.000 25.788 7.563 25.605 8.250 "/></g>
<g fill="#eee" stroke="#eee">
<path d="M 239.047 11.000 C 237.898 14.110 234.377 29.684 234.696 30.250 C 234.928 30.663 236.104 30.993 237.309 30.985 C 238.908 30.974 239.136 30.739 238.153 30.116 C 237.032 29.406 237.089 27.987 238.489 21.696 C 239.414 17.535 239.960 13.314 239.702 12.315 C 239.443 11.317 239.149 10.725 239.047 11.000 "/></g>
<g fill="#eee" stroke="#eee">
<path d="M 136.000 23.000 C 136.000 23.577 139.147 24.000 143.441 24.000 C 147.534 24.000 151.160 23.550 151.500 23.000 C 151.892 22.365 149.177 22.000 144.059 22.000 C 139.353 22.000 136.000 22.416 136.000 23.000 "/></g>
<g fill="#eee" stroke="#eee">
<path d="M 240.000 5.059 C 240.000 6.191 240.450 6.840 241.000 6.500 C 241.550 6.160 242.000 5.234 242.000 4.441 C 242.000 3.648 241.550 3.000 241.000 3.000 C 240.450 3.000 240.000 3.927 240.000 5.059 "/></g>
</svg>
